<?xml version="1.0" encoding="UTF-8"?>
<svg width="1282px" height="302px" viewBox="0 0 1282 302" version="1.1" xmlns="http://www.w3.org/2000/svg" xmlns:xlink="http://www.w3.org/1999/xlink">
    <!-- Generator: Sketch 60.1 (88133) - https://sketch.com -->
    <title>Monk72Logo_EE263E</title>
    <desc>Created with Sketch.</desc>
    <g id="Page-1" stroke="none" stroke-width="1" fill="none" fill-rule="evenodd">
        <g id="Monk72Logo_EE263E" fill="#EE263E" fill-rule="nonzero">
            <g id="Monk72Logo" transform="translate(0.000000, 0.000000)">
                <path d="M812.368176,0.155220045 C810.007668,34.7173884 809.417541,69.5749598 809.417541,104.137128 C821.810208,78.1416511 846.300478,46.5335143 876.396954,46.5335143 C909.149002,46.5335143 927.147875,83.4589078 899.411907,108.568175 C892.330383,99.1152747 878.167335,94.3888243 868.725303,94.3888243 C853.382002,94.3888243 836.858446,100.887694 825.646034,114.476238 C851.316557,146.084375 870.200621,100.296887 897.346462,124.224542 C918.591034,143.130344 905.018113,202.506376 937.180034,208.709843 L937.180034,208.709843 L937.180034,212.845487 C902.362541,209.891455 868.43024,209.891455 833.317684,212.845487 L833.317684,212.845487 L833.022621,209.596052 C854.562256,192.462669 842.169589,144.016553 822.105272,119.498092 C814.728684,130.723412 810.892859,145.788972 812.66324,164.990177 C816.499065,185.668397 823.580589,202.210973 830.662113,209.300649 L830.662113,209.300649 L830.662113,212.845487 C806.781979,210.729768 782.447775,210.129357 758.526731,211.044253 C754.174602,200.810702 750.572813,189.599166 747.792098,177.416896 C750.455165,163.188637 751.585097,144.285945 751.585097,120.679704 C751.585097,66.3255252 748.929526,27.923116 730.340526,21.7196499 L730.340526,21.7196499 L730.340526,17.8794089 C755.715986,16.9931995 790.238415,12.8575554 812.368176,0.155220045 Z" id="Combined-Shape"></path>
                <path d="M550.802137,148.064886 C550.505626,102.277398 513.622689,74.5095021 469.363166,73.6232926 C420.677689,72.7370832 381.434245,99.6187697 381.434245,145.110854 C381.434245,190.012133 416.841864,220.438657 465.822404,220.73406 C506.246102,221.029464 551.095753,190.898342 550.802137,148.064886 Z M442.512388,150.132708 C438.971626,121.183199 441.332134,83.6669997 458.150753,81.5991776 C472.903927,79.5313556 486.476848,114.093524 489.13242,144.224645 C491.787991,175.832782 487.362039,210.985757 473.198991,212.758175 C458.74088,215.121401 446.643277,182.922457 442.512388,150.132708 Z M868.58407,301.674523 C914.613975,301.674523 959.463626,287.790575 959.463626,260.318082 C959.463626,243.775506 947.661086,230.186961 928.481959,230.186961 C920.810308,230.186961 913.138658,232.254783 906.352197,236.68583 C914.318912,268.293967 895.434848,291.335413 861.207483,291.335413 C787.146546,291.335413 732.5598,238.753652 725.77334,134.771744 C724.298023,110.253283 719.577007,73.6232926 684.464451,73.6232926 C654.663039,73.6232926 641.090118,94.5969162 625.451753,96.369335 C625.746816,88.6888532 626.336943,81.0083713 627.517197,73.9186958 C605.387435,86.6210312 571.750197,90.7566752 546.374737,91.6428847 L546.374737,95.4831256 C564.777847,101.624557 566.697028,124.847941 566.733572,149.388663 L566.734118,150.132708 C566.734118,179.082217 562.013102,208.327128 546.374737,214.530594 L546.374737,218.666238 C578.241594,215.712207 611.288705,215.712207 644.925943,218.666238 L644.925943,214.530594 C630.172769,208.622531 624.566562,185.581086 624.566562,138.316582 L624.566562,135.362551 C626.336943,113.502718 634.893785,97.5509476 646.106197,97.5509476 C659.974181,97.5509476 668.531023,121.774006 668.531023,159.290206 C668.531023,190.898342 660.564308,206.554709 649.056832,214.530594 L649.056832,218.666238 C755.869816,218.666238 761.180959,301.674523 868.58407,301.674523 Z" id="on"></path>
                <path d="M996.442494,233.261773 C1030.66986,233.261773 1046.01316,207.266296 1046.01316,183.929447 C1037.45632,181.566222 1025.06365,173.88574 1025.06365,157.638567 C1025.06365,126.325834 1061.0614,88.5142306 1119.48397,45.6807742 L1151.05576,23.5255381 C1090.56775,26.4795695 1006.76972,26.4795695 946.281701,23.5255381 L955.133605,106.23842 L957.494113,106.23842 C959.854621,84.9693929 993.491859,74.6302827 1026.83403,74.9256858 L1071.97875,75.221089 C1017.98213,103.875194 951.002717,131.052284 951.002717,183.929447 C951.002717,215.832987 974.902859,233.261773 996.442494,233.261773 Z" id="7"></path>
                <path d="M40.5678386,268.884774 C90.7286322,268.884774 110.497886,208.031725 122.300426,119.410781 L132.332585,34.3346739 C151.806775,85.1440154 182.788442,174.946572 200.492251,223.097286 L265.701283,37.8795117 C281.044585,112.911911 295.207632,206.259306 265.40622,214.530594 L265.40622,218.666238 C304.3546,215.712207 355.105521,215.712207 394.053902,218.666238 L394.053902,214.530594 C368.973505,202.419065 362.187045,158.699399 353.33514,119.410781 C343.598045,76.5773241 340.942473,28.426611 364.547553,16.0196788 L364.547553,11.8840347 C335.926394,14.8380662 292.256997,14.8380662 263.635839,11.8840347 L233.244299,100.800382 C211.999727,65.3520045 211.114537,44.378381 204.62314,11.8840347 C169.805648,14.8380662 132.037521,14.8380662 97.220029,11.8840347 L97.220029,16.0196788 C126.726378,21.6323386 115.513966,91.0520784 110.497886,119.706184 C96.0397751,200.942049 47.6493624,212.167369 16.3726322,191.193746 C-13.4287805,216.303013 -0.741050338,268.884774 40.5678386,268.884774 Z" id="M"></path>
                <path d="M1276.59438,230.307742 L1267.74247,147.59486 L1265.38197,147.59486 C1261.54614,182.157029 1198.69762,178.316788 1124.34162,178.612191 C1127.29225,160.888002 1281.90552,151.730504 1281.90552,81.1291519 C1281.90552,38.5910986 1237.05587,17.6174751 1183.64938,17.6174751 C1130.53795,17.322072 1094.5402,45.385371 1094.5402,80.2429425 C1094.5402,105.647613 1114.89959,122.19019 1135.84909,122.19019 C1175.3876,122.19019 1178.33824,87.9234243 1175.3876,74.6302827 C1165.06038,74.6302827 1154.73316,62.5187536 1154.73316,47.7485962 C1154.73316,34.4554545 1160.92949,23.5255381 1174.50241,23.5255381 C1191.32103,23.5255381 1201.05812,42.1359364 1201.05812,57.4969001 C1201.05812,141.095991 1095.42539,138.437363 1095.42539,230.307742 C1155.91341,227.35371 1216.10636,227.35371 1276.59438,230.307742 Z" id="2"></path>
            </g>
        </g>
    </g>
</svg>