<svg width="534" height="160" viewBox="0 0 534 160" fill="none" xmlns="http://www.w3.org/2000/svg">
<path fill-rule="evenodd" clip-rule="evenodd" d="M84.6403 62.4523H0V146.567H84.6403V104.51L42.3207 62.4533L84.6403 62.4533V62.4523Z" fill="#40DDA6"/>
<path d="M42.3198 62.4518L42.3198 104.509L84.64 104.509L42.3198 62.4518Z" fill="#1C1A2E"/>
<path fill-rule="evenodd" clip-rule="evenodd" d="M47.7152 98.3276L47.7152 56.2707L90.0347 98.3276L132.355 98.3276L132.355 14.2125L47.7145 14.2125L47.7145 98.3276L47.7152 98.3276Z" fill="#40DDA6"/>
<path d="M90.035 98.3285L90.035 56.2709L47.7149 56.2709L90.035 98.3285Z" fill="#1C1A2E"/>
<path d="M208.768 128.166C228.459 128.166 242.321 114.693 242.321 95.3905C242.321 75.9584 228.459 62.7446 208.768 62.7446C188.559 62.7446 175.086 76.4766 175.086 95.3905C175.086 114.304 188.559 128.166 208.768 128.166ZM208.768 112.879C199.052 112.879 192.316 105.236 192.316 95.3905C192.316 85.4153 198.923 77.9016 208.768 77.9016C218.096 77.9016 225.091 85.0267 225.091 95.3905C225.091 105.754 217.836 112.879 208.768 112.879ZM255.629 127H272.6V95.2609C272.6 83.8608 278.3 77.9016 286.85 77.9016C294.752 77.9016 299.027 81.6585 299.027 93.7064V127H315.998V89.4313C315.998 69.9992 306.541 62.7446 293.068 62.7446C285.166 62.7446 277.911 65.8537 272.859 71.8129H272.6V63.6514H255.629V127ZM361.973 128.166C381.664 128.166 395.526 114.693 395.526 95.3905C395.526 75.9584 381.664 62.7446 361.973 62.7446C341.764 62.7446 328.291 76.4766 328.291 95.3905C328.291 114.304 341.764 128.166 361.973 128.166ZM361.973 112.879C352.257 112.879 345.521 105.236 345.521 95.3905C345.521 85.4153 352.127 77.9016 361.973 77.9016C371.3 77.9016 378.296 85.0267 378.296 95.3905C378.296 105.754 371.041 112.879 361.973 112.879ZM423.687 127H439.492L464.365 63.6514H446.617L431.719 106.143H431.589L416.951 63.6514H398.814L423.687 127ZM497.761 128.166C506.052 128.166 512.4 125.057 516.804 119.357L517.063 119.486V127H533.257V63.6514H516.286V70.906L516.027 71.0356C511.493 65.5946 504.756 62.7446 497.372 62.7446C480.401 62.7446 467.576 76.347 467.576 95.52C467.576 115.082 480.401 128.166 497.761 128.166ZM500.999 112.879C491.413 112.879 484.806 105.754 484.806 95.6496C484.806 84.7676 491.802 77.9016 500.999 77.9016C510.068 77.9016 517.063 85.4153 517.063 95.6496C517.063 106.013 509.679 112.879 500.999 112.879Z" fill="#1C1A2E"/>
</svg>
